<svg id="Layer_5" enable-background="new 0 0 62 62" height="512" viewBox="0 0 62 62" width="512" xmlns="http://www.w3.org/2000/svg"><g><g><g><path d="m56.95 21h-35.95v16h29.22c1.63 0 3.06-1.11 3.45-2.7l3.22-12.87c.03-.15.06-.29.08-.43z" fill="#ff826e"/></g><g><path d="m47 31v6h-4v-6c0-.55.22-1.05.59-1.41.36-.37.86-.59 1.41-.59 1.1 0 2 .9 2 2z" fill="#fc6e51"/></g><g><path d="m39 27v10h-4v-10c0-.55.22-1.05.59-1.41.36-.37.86-.59 1.41-.59 1.1 0 2 .9 2 2z" fill="#fc6e51"/></g><g><path d="m31 31v6h-4v-6c0-.55.22-1.05.59-1.41.36-.37.86-.59 1.41-.59 1.1 0 2 .9 2 2z" fill="#fc6e51"/></g><g><path d="m57 20.56c0 .14-.01.29-.03.44h-.02-35.95v-4h4 6 8 6 8 .44c1.97 0 3.56 1.59 3.56 3.56z" fill="#fc6e51"/></g><g><path d="m31 1h12v16h-12z" fill="#ffeaa7"/></g><g><path d="m45 9h8v8h-8z" fill="#cf9e76"/></g><g><path d="m45 9v8h-6v-8h4z" fill="#d3a06c"/></g><g><path d="m25 1h6v16h-6z" fill="#fcd770"/></g><g><path d="m13 9v4c0 1.1-.9 2-2 2h-6c-2.21 0-4-1.79-4-4 0-1.1.45-2.1 1.17-2.83.73-.72 1.73-1.17 2.83-1.17h6c1.1 0 2 .9 2 2z" fill="#aab2bd"/></g><g><path d="m57 49.34c2.33.83 4 3.05 4 5.66 0 3.31-2.69 6-6 6s-6-2.69-6-6c0-2.61 1.67-4.83 4-5.66v5.66c0 1.1.9 2 2 2s2-.9 2-2z" fill="#969faa"/></g><g><path d="m19.36 50.88c1.02 1.07 1.64 2.52 1.64 4.12 0 3.31-2.69 6-6 6s-6-2.69-6-6 2.69-6 6-6c.21 0 .41.01.61.03l-1.97 4.51c-.39.37-.64.89-.64 1.46 0 1.1.9 2 2 2s2-.9 2-2z" fill="#969faa"/></g><g><path d="m57 49.34v5.66c0-1.1-.9-2-2-2s-2 .9-2 2v-5.66-4.34h4z" fill="#ccd1d9"/></g><g><path d="m17 55c0-1.1-.9-2-2-2-.53 0-1.01.2-1.36.54l1.97-4.51 2.73-6.25c1.04 1.28 2.61 2.13 4.38 2.21l-3.36 5.89z" fill="#ccd1d9"/></g><g><path d="m60.97 42.66c.21 1.25-.76 2.34-1.97 2.34h-2-4-30c-.1 0-.19 0-.28-.01-1.77-.08-3.34-.93-4.38-2.21-.84-1.03-1.34-2.35-1.34-3.78v-25c0-.55-.45-1-1-1h-3v-4h4c2.21 0 4 1.79 4 4v4 4 16 2c0 1.1.9 2 2 2h35.89c.99 0 1.92.68 2.08 1.66z" fill="#ccd1d9"/></g></g><g><path d="m58 48.695v-2.695h1c.881 0 1.715-.386 2.287-1.06.571-.673.816-1.562.672-2.44-.234-1.425-1.555-2.5-3.071-2.5h-35.888c-.552 0-1-.449-1-1v-1h28.219c2.098 0 3.917-1.421 4.426-3.455l3.22-12.878c.089-.362.135-.734.135-1.105 0-2.323-1.751-4.224-4-4.505v-8.057h-10v-8h-20v16h-2v-3c0-2.757-2.243-5-5-5h-3.184c-.414-1.161-1.514-2-2.816-2h-6c-2.757 0-5 2.243-5 5s2.243 5 5 5h6c1.302 0 2.402-.839 2.816-2h2.184v25c0 1.448.442 2.794 1.197 3.911l-2.227 5.09c-3.845.017-6.97 3.149-6.97 6.999 0 3.86 3.141 7 7 7s7-3.14 7-7c0-1.544-.505-3.021-1.429-4.233l2.724-4.767h28.705v2.695c-2.414 1.15-4 3.59-4 6.305 0 3.86 3.141 7 7 7s7-3.14 7-7c0-2.716-1.586-5.155-4-6.305zm-28-12.695h-2v-5c0-.551.448-1 1-1s1 .449 1 1zm8 0h-2v-9c0-.551.448-1 1-1s1 .449 1 1zm8 0h-2v-5c0-.551.448-1 1-1s1 .449 1 1zm6.705-1.94c-.286 1.142-1.309 1.94-2.486 1.94h-2.219v-5c0-1.654-1.346-3-3-3s-3 1.346-3 3v5h-2v-9c0-1.654-1.346-3-3-3s-3 1.346-3 3v9h-2v-5c0-1.654-1.346-3-3-3s-3 1.346-3 3v5h-4v-14h33.72zm-12.705-20.06h4v2h-4zm0-2v-2h4v2zm6 2h6v2h-6zm6-2h-6v-2h6zm-14-4v8h-6v-10h10v2zm4-4h-10v-2h10zm-12-2v2h-4v-2zm-4 4h4v10h-4zm27.438 12c1.219 0 2.238.857 2.495 2h-33.933v-2zm-41.438-5c0 .551-.448 1-1 1h-6c-1.654 0-3-1.346-3-3s1.346-3 3-3h6c.552 0 1 .449 1 1zm2-1v-2h3c1.654 0 3 1.346 3 3v26c0 1.654 1.346 3 3 3h35.888c.54 0 1.022.362 1.098.824.05.302-.029.594-.223.821-.192.226-.47.355-.763.355h-36c-2.757 0-5-2.243-5-5v-25c0-1.103-.897-2-2-2zm3.079 40.846c-.451-.436-1.04-.721-1.692-.807l3.298-7.539c.719.565 1.55.991 2.455 1.241zm-2.079 1.154c.552 0 1 .449 1 1s-.448 1-1 1-1-.449-1-1 .448-1 1-1zm5 1c0 2.757-2.243 5-5 5s-5-2.243-5-5c0-2.433 1.749-4.46 4.054-4.904l-1.267 2.895c-.484.533-.787 1.234-.787 2.009 0 1.654 1.346 3 3 3 1.544 0 2.804-1.177 2.967-2.678l1.472-2.577c.354.695.561 1.458.561 2.255zm36-9v6.184c-.314-.112-.648-.184-1-.184s-.686.072-1 .184v-6.184zm0 9c0 .551-.448 1-1 1s-1-.449-1-1 .448-1 1-1 1 .449 1 1zm-1 5c-2.757 0-5-2.243-5-5 0-1.599.766-3.069 2-3.998v3.998c0 1.654 1.346 3 3 3s3-1.346 3-3v-3.998c1.234.928 2 2.399 2 3.998 0 2.757-2.243 5-5 5z"/><path d="m14 40h-11c-.552 0-1-.449-1-1s.448-1 1-1h6c1.654 0 3-1.346 3-3s-1.346-3-3-3h-3c-.552 0-1-.449-1-1s.448-1 1-1h5c1.654 0 3-1.346 3-3s-1.346-3-3-3h-8c-.552 0-1-.449-1-1s.448-1 1-1h8c1.654 0 3-1.346 3-3v-1h-2v1c0 .551-.448 1-1 1h-8c-1.654 0-3 1.346-3 3s1.346 3 3 3h8c.552 0 1 .449 1 1s-.448 1-1 1h-5c-1.654 0-3 1.346-3 3s1.346 3 3 3h3c.552 0 1 .449 1 1s-.448 1-1 1h-6c-1.654 0-3 1.346-3 3s1.346 3 3 3h11z"/></g></g></svg>